<svg xmlns="http://www.w3.org/2000/svg" xmlns:xlink="http://www.w3.org/1999/xlink"><symbol id="001-fb" viewBox="0 0 96.124 96.123"><path d="M72.089.02L59.624 0C45.62 0 36.57 9.285 36.57 23.656v10.907H24.037a1.96 1.96 0 00-1.96 1.961v15.803a1.96 1.96 0 001.96 1.96H36.57v39.876a1.96 1.96 0 001.96 1.96h16.352a1.96 1.96 0 001.96-1.96V54.287h14.654a1.96 1.96 0 001.96-1.96l.006-15.803a1.963 1.963 0 00-1.961-1.961H56.842v-9.246c0-4.444 1.059-6.7 6.848-6.7l8.397-.003a1.96 1.96 0 001.959-1.96V1.98A1.96 1.96 0 0072.089.02z"/></symbol><symbol id="002-vk" viewBox="0 0 548.358 548.358"><path d="M545.451 400.298c-.664-1.431-1.283-2.618-1.858-3.569-9.514-17.135-27.695-38.167-54.532-63.102l-.567-.571-.284-.28-.287-.287h-.288c-12.18-11.611-19.893-19.418-23.123-23.415-5.91-7.614-7.234-15.321-4.004-23.13 2.282-5.9 10.854-18.36 25.696-37.397 7.807-10.089 13.99-18.175 18.556-24.267 32.931-43.78 47.208-71.756 42.828-83.939l-1.701-2.847c-1.143-1.714-4.093-3.282-8.846-4.712-4.764-1.427-10.853-1.663-18.278-.712l-82.224.568c-1.332-.472-3.234-.428-5.712.144l-3.713.859-1.431.715-1.136.859c-.952.568-1.999 1.567-3.142 2.995-1.137 1.423-2.088 3.093-2.848 4.996-8.952 23.031-19.13 44.444-30.553 64.238-7.043 11.803-13.511 22.032-19.418 30.693-5.899 8.658-10.848 15.037-14.842 19.126-4 4.093-7.61 7.372-10.852 9.849-3.237 2.478-5.708 3.525-7.419 3.142-1.715-.383-3.33-.763-4.859-1.143-2.663-1.714-4.805-4.045-6.42-6.995-1.622-2.95-2.714-6.663-3.285-11.136-.568-4.476-.904-8.326-1-11.563-.089-3.233-.048-7.806.145-13.706.198-5.903.287-9.897.287-11.991 0-7.234.141-15.085.424-23.555.288-8.47.521-15.181.716-20.125.194-4.949.284-10.185.284-15.705s-.336-9.849-1-12.991a44.442 44.442 0 00-2.99-9.137c-1.335-2.95-3.289-5.232-5.853-6.852-2.569-1.618-5.763-2.902-9.564-3.856-10.089-2.283-22.936-3.518-38.547-3.71-35.401-.38-58.148 1.906-68.236 6.855-3.997 2.091-7.614 4.948-10.848 8.562-3.427 4.189-3.905 6.475-1.431 6.851 11.422 1.711 19.508 5.804 24.267 12.275l1.715 3.429c1.334 2.474 2.666 6.854 3.999 13.134 1.331 6.28 2.19 13.227 2.568 20.837.95 13.897.95 25.793 0 35.689-.953 9.9-1.853 17.607-2.712 23.127-.859 5.52-2.143 9.993-3.855 13.418-1.715 3.426-2.856 5.52-3.428 6.28-.571.76-1.047 1.239-1.425 1.427a21.387 21.387 0 01-7.71 1.431c-2.667 0-5.901-1.334-9.707-4-3.805-2.666-7.754-6.328-11.847-10.992-4.093-4.665-8.709-11.184-13.85-19.558-5.137-8.374-10.467-18.271-15.987-29.691l-4.567-8.282c-2.855-5.328-6.755-13.086-11.704-23.267-4.952-10.185-9.329-20.037-13.134-29.554-1.521-3.997-3.806-7.04-6.851-9.134l-1.429-.859c-.95-.76-2.475-1.567-4.567-2.427a30.301 30.301 0 00-6.567-1.854l-78.229.568c-7.994 0-13.418 1.811-16.274 5.428l-1.143 1.711c-.571.953-.859 2.475-.859 4.57 0 2.094.571 4.664 1.714 7.707 11.42 26.84 23.839 52.725 37.257 77.659 13.418 24.934 25.078 45.019 34.973 60.237 9.897 15.229 19.985 29.602 30.264 43.112 10.279 13.515 17.083 22.176 20.412 25.981 3.333 3.812 5.951 6.662 7.854 8.565l7.139 6.851c4.568 4.569 11.276 10.041 20.127 16.416 8.853 6.379 18.654 12.659 29.408 18.85 10.756 6.181 23.269 11.225 37.546 15.126 14.275 3.905 28.169 5.472 41.684 4.716h32.834c6.659-.575 11.704-2.669 15.133-6.283l1.136-1.431c.764-1.136 1.479-2.901 2.139-5.276.668-2.379 1-5 1-7.851-.195-8.183.428-15.558 1.852-22.124 1.423-6.564 3.045-11.513 4.859-14.846 1.813-3.33 3.859-6.14 6.136-8.418 2.282-2.283 3.908-3.666 4.862-4.142.948-.479 1.705-.804 2.276-.999 4.568-1.522 9.944-.048 16.136 4.429 6.187 4.473 11.99 9.996 17.418 16.56 5.425 6.57 11.943 13.941 19.555 22.124 7.617 8.186 14.277 14.271 19.985 18.274l5.708 3.426c3.812 2.286 8.761 4.38 14.853 6.283 6.081 1.902 11.409 2.378 15.984 1.427l73.087-1.14c7.229 0 12.854-1.197 16.844-3.572 3.998-2.379 6.373-5 7.139-7.851.764-2.854.805-6.092.145-9.712-.677-3.611-1.344-6.136-2.008-7.563z"/></symbol><symbol id="003-yt" viewBox="0 0 512 512"><path d="M490.24 113.92c-13.888-24.704-28.96-29.248-59.648-30.976C399.936 80.864 322.848 80 256.064 80c-66.912 0-144.032.864-174.656 2.912-30.624 1.76-45.728 6.272-59.744 31.008C7.36 138.592 0 181.088 0 255.904v.256c0 74.496 7.36 117.312 21.664 141.728 14.016 24.704 29.088 29.184 59.712 31.264C112.032 430.944 189.152 432 256.064 432c66.784 0 143.872-1.056 174.56-2.816 30.688-2.08 45.76-6.56 59.648-31.264C504.704 373.504 512 330.688 512 256.192v-.256c0-74.848-7.296-117.344-21.76-142.016zM192 352V160l160 96-160 96z"/></symbol><symbol id="004-ok" viewBox="0 0 512.479 512.479"><path d="M256.239 277.333c76.583 0 138.667-62.083 138.667-138.667S332.823 0 256.239 0 117.573 62.083 117.573 138.667c.094 76.544 62.122 138.572 138.666 138.666zm0-213.333c41.237 0 74.667 33.429 74.667 74.667s-33.429 74.667-74.667 74.667-74.667-33.429-74.667-74.667S215.002 64 256.239 64z"/><path d="M392.069 343.04a53.72 53.72 0 0024.171-44.8 38.698 38.698 0 00-21.696-35.307 40.534 40.534 0 00-42.667 4.011c-56.983 41.543-134.27 41.543-191.253 0a40.747 40.747 0 00-42.667-4.011 38.74 38.74 0 00-21.717 35.285 53.78 53.78 0 0024.171 44.8 246.275 246.275 0 0062.507 29.867 212.318 212.318 0 0011.627 3.243l-64.469 63.04c-16.912 16.409-17.321 43.42-.912 60.333 16.409 16.912 43.42 17.321 60.333.912.352-.342.698-.689 1.038-1.043l65.707-68.011 65.835 68.139c16.395 16.925 43.407 17.355 60.332.96 16.925-16.395 17.355-43.407.96-60.332a42.943 42.943 0 00-1.047-1.044l-64.363-62.976a270.92 270.92 0 0011.669-3.264 245.352 245.352 0 0062.441-29.802z"/></symbol><symbol id="address-clock" viewBox="0 0 19 19">
  <path fill-rule="evenodd" fill="rgb(182, 83, 210)" d="M9.500,19.000 C4.253,19.000 -0.000,14.746 -0.000,9.500 C-0.000,4.254 4.253,-0.000 9.500,-0.000 C14.746,-0.000 19.000,4.254 19.000,9.500 C19.000,14.746 14.746,19.000 9.500,19.000 ZM9.500,1.781 C5.237,1.781 1.781,5.237 1.781,9.500 C1.781,13.762 5.237,17.219 9.500,17.219 C13.762,17.219 17.218,13.762 17.218,9.500 C17.218,5.237 13.762,1.781 9.500,1.781 ZM11.536,12.376 L9.789,10.629 C9.694,10.654 9.602,10.688 9.500,10.688 C8.844,10.688 8.312,10.156 8.312,9.500 C8.312,9.397 8.346,9.305 8.371,9.210 L4.785,5.624 L5.624,4.783 L9.211,8.371 C9.306,8.346 9.397,8.312 9.500,8.312 C10.155,8.312 10.687,8.844 10.687,9.500 C10.687,9.602 10.653,9.694 10.629,9.789 L12.376,11.535 L11.536,12.376 Z"/>
</symbol><symbol id="address-comment" viewBox="0 -3 18 18">
  <path fill-rule="evenodd" fill="rgb(182, 83, 210)" d="M9.000,-0.000 C4.029,-0.000 -0.000,2.920 -0.000,6.522 C-0.000,8.125 1.249,9.951 2.571,11.087 L1.286,15.000 L5.193,12.425 C6.351,12.818 7.636,13.043 9.000,13.043 C13.971,13.043 18.000,10.124 18.000,6.522 C18.000,2.920 13.971,-0.000 9.000,-0.000 Z"/>
</symbol><symbol id="address-pin-location" viewBox="0 0 22 19">
  <path fill-rule="evenodd" fill="rgb(182, 83, 210)" d="M7.000,-0.000 C3.133,-0.000 -0.000,3.447 -0.000,7.143 C-0.000,9.110 0.962,10.030 2.800,13.384 C4.414,16.330 5.763,19.004 5.763,19.004 C6.431,20.330 7.528,20.332 8.198,19.007 C8.198,19.007 9.555,16.328 11.200,13.384 C13.073,10.030 14.000,9.111 14.000,7.143 C14.000,3.447 10.866,-0.000 7.000,-0.000 ZM7.000,11.429 C4.681,11.429 2.800,9.510 2.800,7.143 C2.800,4.776 4.681,2.857 7.000,2.857 C9.320,2.857 11.200,4.776 11.200,7.143 C11.200,9.510 9.320,11.429 7.000,11.429 Z"/>
</symbol><symbol id="address-telephone" viewBox="0 0 19 19">
  <path fill-rule="evenodd" fill="rgb(182, 83, 210)" d="M14.001,17.998 C14.402,17.999 18.000,15.338 18.000,14.998 C18.000,14.659 13.973,12.122 13.625,12.122 C13.277,12.122 12.108,13.524 11.793,13.680 C11.476,13.836 9.508,13.780 7.313,11.586 C5.118,9.393 4.369,6.868 4.369,6.471 C4.369,6.074 6.199,4.849 6.250,4.561 C6.301,4.274 3.837,-0.000 3.438,-0.000 C3.038,-0.000 -0.000,3.691 -0.000,3.999 C-0.000,4.307 0.278,8.264 5.289,13.274 C10.300,18.283 13.600,17.995 14.001,17.998 Z"/>
</symbol><symbol id="arrow" viewBox="0 0 22.5 33.5"><path fill="none" stroke="#FFF" stroke-width="3" d="M3.401 2.652l13.343 13.343L3.401 29.338"/></symbol><symbol id="card-hover-blue">
  <path fill-rule="evenodd" opacity="0.149" fill="rgb(0, 154, 248)" d="M175.950,140.783 C173.335,145.172 168.730,147.786 163.624,147.786 C163.601,147.786 163.578,147.786 163.555,147.786 L161.277,147.775 L161.277,164.391 C161.277,181.148 147.638,194.781 130.873,194.781 L116.442,194.781 C115.194,194.781 114.179,195.796 114.179,197.043 L114.179,241.195 C114.179,242.825 113.352,244.344 111.983,245.229 C111.193,245.740 110.285,246.000 109.372,246.000 C108.702,246.000 108.031,245.860 107.401,245.578 L35.278,213.176 C32.857,212.088 31.776,209.244 32.864,206.824 C33.953,204.403 36.797,203.323 39.220,204.411 L104.565,233.768 L104.565,197.044 C104.565,190.498 109.893,185.172 116.442,185.172 L130.873,185.172 C142.337,185.172 151.663,175.850 151.663,164.392 L151.663,142.949 C151.663,141.671 152.173,140.446 153.079,139.544 C153.980,138.647 155.199,138.144 156.470,138.144 C156.478,138.144 156.485,138.144 156.493,138.144 L163.600,138.177 C163.609,138.177 163.617,138.177 163.625,138.177 C166.051,138.177 167.277,136.562 167.692,135.865 C168.108,135.166 168.950,133.310 167.777,131.168 L152.254,102.825 C151.867,102.118 151.663,101.325 151.663,100.518 L151.663,80.600 C151.663,41.456 119.802,9.609 80.639,9.609 C41.476,9.609 9.615,41.456 9.615,80.600 L9.615,94.441 C9.615,110.121 14.474,125.098 23.668,137.751 C24.264,138.572 24.585,139.560 24.585,140.575 L24.585,181.785 C24.585,184.439 22.432,186.590 19.778,186.590 C17.124,186.590 14.971,184.439 14.971,181.785 L14.971,142.110 C5.172,128.081 0.000,111.634 0.000,94.441 L0.000,80.600 C0.001,36.157 36.175,-0.000 80.639,-0.000 C125.103,-0.000 161.277,36.157 161.277,80.600 L161.277,99.289 L176.210,126.554 C178.675,131.054 178.578,136.374 175.950,140.783 ZM20.214,195.786 C22.869,195.786 25.021,197.937 25.021,200.591 C25.021,203.244 22.869,205.395 20.214,205.395 C17.560,205.395 15.407,203.244 15.407,200.591 C15.407,197.937 17.560,195.786 20.214,195.786 ZM125.536,117.596 L117.111,126.016 C113.200,129.925 106.634,130.022 101.838,126.242 L99.286,124.231 C98.770,124.456 98.249,124.671 97.724,124.879 L97.342,128.103 C96.624,134.167 91.912,138.739 86.382,138.739 L74.468,138.739 C68.938,138.739 64.226,134.167 63.508,128.103 L63.127,124.878 C62.603,124.672 62.083,124.456 61.566,124.231 L59.015,126.243 C54.218,130.023 47.651,129.926 43.742,126.017 L35.317,117.596 C31.406,113.687 31.310,107.124 35.092,102.330 L37.104,99.779 C36.879,99.263 36.664,98.743 36.457,98.219 L33.231,97.837 C27.165,97.120 22.590,92.411 22.590,86.883 L22.590,74.974 C22.590,69.446 27.165,64.737 33.231,64.020 L36.458,63.638 C36.664,63.114 36.880,62.594 37.105,62.078 L35.093,59.528 C31.311,54.734 31.408,48.171 35.318,44.262 L43.743,35.841 C47.655,31.931 54.220,31.835 59.017,35.616 L61.568,37.627 C62.084,37.403 62.604,37.187 63.127,36.981 L63.508,33.757 C64.226,27.693 68.938,23.120 74.468,23.120 L86.382,23.120 C91.912,23.120 96.624,27.692 97.342,33.755 L97.724,36.980 C98.248,37.186 98.768,37.402 99.284,37.626 L101.836,35.615 C106.632,31.835 113.199,31.931 117.109,35.840 L125.535,44.261 C129.445,48.170 129.541,54.733 125.760,59.527 L123.748,62.078 C123.973,62.594 124.188,63.114 124.395,63.638 L127.622,64.019 C133.688,64.736 138.263,69.445 138.263,74.973 L138.263,86.883 C138.263,92.410 133.688,97.119 127.622,97.837 L124.396,98.218 C124.189,98.742 123.974,99.262 123.749,99.778 L125.761,102.329 C129.543,107.123 129.446,113.687 125.536,117.596 ZM126.493,88.295 C127.828,88.137 128.648,87.366 128.648,86.883 L128.648,74.974 C128.648,74.491 127.828,73.721 126.493,73.562 L120.305,72.831 C118.431,72.610 116.860,71.314 116.288,69.517 C115.647,67.502 114.830,65.531 113.858,63.656 C112.989,61.981 113.182,59.952 114.351,58.471 L118.210,53.578 C119.042,52.522 119.077,51.398 118.736,51.056 L110.311,42.635 C109.970,42.294 108.844,42.329 107.788,43.161 L102.893,47.019 C101.411,48.188 99.381,48.380 97.706,47.513 C95.830,46.541 93.857,45.724 91.843,45.083 C90.045,44.512 88.748,42.941 88.527,41.069 L87.795,34.884 C87.637,33.549 86.865,32.729 86.383,32.729 L74.468,32.729 C73.985,32.729 73.215,33.549 73.056,34.884 L72.325,41.069 C72.103,42.942 70.806,44.512 69.008,45.084 C66.995,45.724 65.023,46.541 63.148,47.512 C61.471,48.380 59.442,48.187 57.960,47.019 L53.065,43.161 C52.008,42.329 50.884,42.294 50.542,42.635 L42.117,51.057 C41.776,51.398 41.810,52.522 42.644,53.578 L46.503,58.471 C47.672,59.953 47.864,61.981 46.996,63.656 C46.023,65.533 45.205,67.504 44.565,69.516 C43.993,71.314 42.422,72.610 40.549,72.831 L34.361,73.563 C33.025,73.721 32.205,74.491 32.205,74.974 L32.205,86.884 C32.205,87.366 33.025,88.137 34.361,88.295 L40.549,89.026 C42.422,89.248 43.993,90.545 44.564,92.342 C45.205,94.355 46.023,96.327 46.995,98.202 C47.863,99.877 47.670,101.905 46.502,103.387 L42.642,108.280 C41.810,109.335 41.774,110.460 42.116,110.802 L50.540,119.223 C50.882,119.564 52.007,119.529 53.063,118.697 L57.958,114.839 C58.823,114.157 59.875,113.807 60.935,113.807 C61.689,113.807 62.448,113.984 63.145,114.346 C65.022,115.318 66.995,116.135 69.008,116.775 C70.806,117.346 72.103,118.917 72.325,120.790 L73.056,126.975 C73.214,128.310 73.985,129.130 74.468,129.130 L86.383,129.130 C86.866,129.130 87.637,128.310 87.795,126.974 L88.527,120.790 C88.748,118.917 90.045,117.347 91.843,116.775 C93.857,116.135 95.831,115.317 97.707,114.346 C99.384,113.478 101.412,113.671 102.895,114.839 L107.790,118.696 C108.845,119.528 109.971,119.563 110.313,119.222 L118.738,110.801 C119.079,110.460 119.044,109.335 118.211,108.279 L114.352,103.387 C113.183,101.905 112.990,99.877 113.858,98.201 C114.830,96.327 115.648,94.355 116.289,92.341 C116.860,90.544 118.431,89.247 120.305,89.026 L126.493,88.295 ZM80.427,105.237 C67.017,105.237 56.109,94.333 56.109,80.930 C56.109,67.527 67.017,56.623 80.427,56.623 C93.836,56.623 104.746,67.527 104.746,80.930 C104.746,94.333 93.836,105.237 80.427,105.237 ZM80.427,66.233 C72.319,66.233 65.722,72.826 65.722,80.930 C65.722,89.034 72.319,95.628 80.427,95.628 C88.535,95.628 95.132,89.034 95.132,80.930 C95.131,72.826 88.535,66.233 80.427,66.233 Z"/>
</symbol><symbol id="card-hover-green">
  <path fill-rule="evenodd" opacity="0.149" fill="rgb(0, 205, 49)" d="M252.348,57.703 C251.773,58.219 238.016,70.476 215.700,82.862 C195.039,94.330 162.878,108.000 127.000,108.000 C91.122,108.000 58.961,94.330 38.300,82.862 C15.984,70.476 2.226,58.218 1.651,57.702 C0.601,56.759 -0.000,55.414 -0.000,54.002 C-0.000,52.591 0.601,51.246 1.651,50.302 C2.227,49.786 15.984,37.528 38.300,25.140 C58.961,13.671 91.121,0.000 127.000,0.000 C162.878,0.000 195.039,13.671 215.700,25.140 C238.016,37.527 251.773,49.786 252.348,50.302 C253.399,51.246 254.000,52.591 254.000,54.003 C254.000,55.414 253.399,56.760 252.348,57.703 ZM43.364,33.710 C29.162,41.572 18.430,49.514 12.776,54.001 C18.429,58.488 29.161,66.429 43.364,74.291 C55.345,80.923 71.382,88.329 89.730,93.082 C79.391,83.241 72.938,69.359 72.938,54.001 C72.938,38.641 79.391,24.759 89.732,14.916 C71.383,19.670 55.345,27.078 43.364,33.710 ZM127.000,9.949 C102.683,9.949 82.899,29.712 82.899,54.002 C82.899,78.291 102.683,98.051 127.000,98.051 C151.317,98.051 171.101,78.291 171.101,54.002 C171.101,29.712 151.317,9.949 127.000,9.949 ZM210.635,33.711 C198.654,27.079 182.616,19.671 164.267,14.917 C174.608,24.759 181.062,38.642 181.062,54.002 C181.062,69.370 174.601,83.258 164.250,93.101 C201.290,83.493 230.463,62.513 241.218,53.998 C235.565,49.511 224.833,41.571 210.635,33.711 ZM127.000,81.033 C112.077,81.033 99.937,68.906 99.937,54.002 C99.937,39.097 112.077,26.971 127.000,26.971 C129.750,26.971 131.980,29.198 131.980,31.945 C131.980,34.692 129.750,36.920 127.000,36.920 C117.569,36.920 109.897,44.583 109.897,54.002 C109.897,63.421 117.569,71.084 127.000,71.084 C136.431,71.084 144.103,63.421 144.103,54.002 C144.103,51.255 146.333,49.028 149.083,49.028 C151.833,49.028 154.063,51.255 154.063,54.002 C154.063,68.906 141.922,81.033 127.000,81.033 ZM141.443,43.887 C135.023,43.887 135.034,33.939 141.443,33.939 C147.863,33.939 147.852,43.888 141.443,43.887 Z"/>
</symbol><symbol id="card-hover-red">
  <path fill-rule="evenodd" opacity="0.102" fill="rgb(255, 76, 36)" d="M223.549,107.513 C211.651,119.412 195.832,125.965 179.008,125.965 C174.246,125.965 169.565,125.439 165.030,124.417 L170.895,130.282 C171.801,131.188 172.310,132.416 172.310,133.697 C172.310,134.978 171.801,136.207 170.895,137.113 L134.299,173.713 C133.393,174.619 132.165,175.128 130.884,175.128 C129.604,175.128 128.376,174.619 127.469,173.713 L117.560,163.802 L49.530,225.659 C45.031,229.749 39.372,231.780 33.725,231.780 C29.241,231.780 24.764,230.498 20.876,227.950 L8.243,240.585 C7.300,241.529 6.064,242.000 4.828,242.000 C3.593,242.000 2.357,241.529 1.413,240.585 C-0.473,238.698 -0.473,235.639 1.413,233.753 L14.047,221.118 C11.563,217.330 10.227,212.901 10.227,208.264 C10.227,202.406 12.397,196.794 16.338,192.460 L78.185,124.422 L68.276,114.512 C66.390,112.625 66.390,109.567 68.276,107.680 L104.871,71.080 C106.758,69.194 109.816,69.194 111.702,71.080 L117.566,76.945 C116.544,72.410 116.018,67.728 116.018,62.965 C116.018,46.138 122.570,30.318 134.468,18.418 C159.028,-6.144 198.989,-6.145 223.550,18.418 C235.448,30.318 242.000,46.138 241.999,62.966 C241.999,79.793 235.447,95.613 223.549,107.513 ZM23.485,198.960 C21.165,201.512 19.887,204.816 19.888,208.265 C19.888,211.964 21.326,215.440 23.939,218.054 C23.939,218.055 23.940,218.055 23.940,218.055 C23.941,218.056 23.941,218.056 23.942,218.057 C29.174,223.288 37.559,223.487 43.033,218.510 L110.723,156.964 L85.024,131.261 L23.485,198.960 ZM108.287,81.326 L78.522,111.095 L130.885,163.466 L160.650,133.697 L108.287,81.326 ZM125.678,62.965 C125.678,77.211 131.225,90.605 141.300,100.680 C160.941,120.325 192.218,121.410 213.149,103.940 L138.038,28.820 C130.037,38.388 125.678,50.341 125.678,62.965 ZM216.720,25.249 C206.323,14.851 192.666,9.652 179.010,9.652 C166.865,9.652 154.723,13.767 144.871,21.990 L219.981,97.110 C227.982,87.541 232.341,75.589 232.341,62.965 C232.341,48.718 226.793,35.324 216.720,25.249 ZM182.876,98.591 C176.650,98.591 176.661,88.930 182.876,88.930 C189.102,88.930 189.092,98.590 182.876,98.591 ZM173.030,88.743 C171.794,88.743 170.558,88.272 169.615,87.328 L148.669,66.380 C146.783,64.494 146.783,61.435 148.669,59.549 C150.557,57.662 153.614,57.662 155.500,59.549 L176.445,80.497 C178.331,82.383 178.331,85.442 176.445,87.328 C175.502,88.271 174.266,88.743 173.030,88.743 ZM132.874,135.687 C131.931,136.631 130.695,137.102 129.459,137.102 C128.223,137.102 126.988,136.631 126.044,135.687 L106.295,115.936 C104.409,114.048 104.409,110.990 106.295,109.104 C108.183,107.218 111.240,107.218 113.126,109.104 L132.875,128.856 C134.762,130.742 134.762,133.801 132.874,135.687 Z"/>
</symbol><symbol id="card-hover-yellow">
  <path fill-rule="evenodd" opacity="0.149" fill="rgb(255, 218, 0)" d="M107.344,51.133 C104.971,51.133 103.047,49.209 103.047,46.836 L103.047,33.945 C103.047,31.572 104.971,29.648 107.344,29.648 C109.717,29.648 111.641,31.572 111.641,33.945 L111.641,46.836 C111.641,49.209 109.717,51.133 107.344,51.133 ZM60.346,147.812 C62.719,147.812 64.643,149.736 64.643,152.109 L64.643,184.336 C64.643,186.709 62.719,188.633 60.346,188.633 C57.973,188.633 56.050,186.709 56.050,184.336 L56.050,152.109 C56.050,149.736 57.973,147.812 60.346,147.812 ZM56.050,125.898 C56.050,123.525 57.973,121.602 60.346,121.602 C62.719,121.602 64.643,123.525 64.643,125.898 L64.643,135.781 C64.643,138.154 62.719,140.078 60.346,140.078 C57.973,140.078 56.050,138.154 56.050,135.781 L56.050,125.898 ZM184.815,58.828 C184.004,59.676 182.882,60.156 181.708,60.156 L167.335,60.156 C165.178,60.156 163.356,58.556 163.075,56.417 C161.738,46.224 160.044,41.404 158.858,39.155 C156.030,33.867 152.400,30.083 147.772,27.610 C143.072,25.102 136.645,23.830 128.672,23.830 L107.344,23.830 C104.971,23.830 103.047,21.906 103.047,19.533 C103.047,17.160 104.971,15.236 107.344,15.236 L128.672,15.236 C138.072,15.236 145.859,16.849 151.819,20.030 C157.911,23.285 162.832,28.363 166.447,35.124 C168.380,38.788 169.894,44.182 171.058,51.562 L177.212,51.562 L175.264,8.593 L10.883,8.593 L8.804,51.562 L14.785,51.562 C15.869,43.082 18.283,36.067 21.983,30.668 C26.323,24.331 31.688,19.961 37.927,17.680 C37.946,17.673 37.965,17.667 37.984,17.660 C42.645,16.029 49.993,15.237 60.449,15.237 L77.412,15.237 C79.785,15.237 81.709,17.160 81.709,19.534 L81.709,170.156 C81.709,183.190 80.379,191.196 77.523,195.352 C72.941,201.972 65.353,205.322 54.963,205.322 L51.776,205.322 L51.776,211.406 L132.824,211.406 L132.824,205.322 L129.794,205.322 C120.355,205.322 113.147,202.644 108.367,197.360 C108.349,197.340 108.332,197.321 108.314,197.300 C104.721,193.177 103.047,184.551 103.047,170.156 L103.047,61.445 C103.047,59.072 104.971,57.148 107.344,57.148 C109.717,57.148 111.641,59.072 111.641,61.445 L111.641,170.156 C111.641,186.590 114.008,190.728 114.772,191.630 C117.856,195.013 122.910,196.728 129.794,196.728 L137.121,196.728 C139.494,196.728 141.418,198.652 141.418,201.025 L141.418,215.703 C141.418,218.076 139.494,220.000 137.121,220.000 L47.479,220.000 C45.106,220.000 43.182,218.076 43.182,215.703 L43.182,201.026 C43.182,198.653 45.106,196.729 47.479,196.729 L54.963,196.729 C62.469,196.729 67.535,194.682 70.449,190.473 C71.245,189.315 73.115,184.992 73.115,170.156 L73.115,23.830 L60.449,23.830 C48.855,23.830 43.392,24.879 40.849,25.762 C36.273,27.442 32.421,30.636 29.072,35.525 C25.675,40.482 23.616,47.432 22.952,56.185 C22.782,58.425 20.915,60.156 18.668,60.156 L4.295,60.156 C3.119,60.156 1.995,59.675 1.184,58.823 C0.373,57.973 -0.054,56.826 0.003,55.652 L2.497,4.089 C2.608,1.800 4.497,-0.000 6.789,-0.000 L179.370,-0.000 C181.667,-0.000 183.558,1.807 183.663,4.102 L186.000,55.664 C186.054,56.836 185.625,57.979 184.815,58.828 Z"/>
</symbol><symbol id="close" viewBox="0 0 174.239 174.239"><path d="M146.537 1.047a3.6 3.6 0 00-5.077 0L89.658 52.849a3.6 3.6 0 01-5.077 0L32.78 1.047a3.6 3.6 0 00-5.077 0L1.047 27.702a3.6 3.6 0 000 5.077l51.802 51.802a3.6 3.6 0 010 5.077L1.047 141.46a3.6 3.6 0 000 5.077l26.655 26.655a3.6 3.6 0 005.077 0l51.802-51.802a3.6 3.6 0 015.077 0l51.801 51.801a3.6 3.6 0 005.077 0l26.655-26.655a3.6 3.6 0 000-5.077L121.39 89.658a3.6 3.6 0 010-5.077l51.801-51.801a3.6 3.6 0 000-5.077L146.537 1.047z" fill="#b653d2"/></symbol><symbol id="mail"><path fill-rule="evenodd" d="M9.6.199c-4.971 0-9 2.979-9 6.652 0 1.636 1.249 3.498 2.571 4.658l-1.285 3.99 3.907-2.626c1.158.401 2.443.63 3.807.63 4.971 0 9-2.977 9-6.652 0-3.673-4.029-6.652-9-6.652z"/></symbol><symbol id="map" viewBox="0 0 19 19"><path fill-rule="evenodd" fill="#B653D2" d="M10 14V2l4-2v12l-4 2zM5 0l4 2v12l-4-2V0zM0 2l4-2v12l-4 2V2z"/></symbol><symbol id="phone"><path fill-rule="evenodd" d="M14.101 18.397c.401.001 3.999-2.66 3.999-2.999 0-.34-4.027-2.876-4.375-2.876-.348 0-1.517 1.401-1.832 1.557-.317.156-2.286.1-4.479-2.094C5.218 9.792 4.469 7.267 4.469 6.87c0-.396 1.83-1.622 1.881-1.909C6.401 4.673 3.937.399 3.538.399c-.4 0-3.438 3.692-3.438 4 0 .307.278 4.264 5.289 9.274 5.011 5.01 8.311 4.722 8.712 4.724z"/></symbol><symbol id="plus" viewBox="0 0 14 13"><path fill-rule="evenodd" d="M14 7.812H7.719V13H5.594V7.812H0V5.844h5.594V0h2.125v5.844H14v1.968z"/></symbol><symbol id="search" viewBox="0 0 19 19"><path fill-rule="evenodd" d="M18.27 16.979l-5.423-5.423A6.71 6.71 0 0014.1 7.649a6.75 6.75 0 10-6.75 6.75 6.719 6.719 0 003.907-1.252l5.422 5.423a1.126 1.126 0 001.591-1.591zm-7.056-7.057a4.51 4.51 0 01-1.592 1.591 4.458 4.458 0 01-2.272.636 4.5 4.5 0 114.5-4.5c0 .833-.242 1.604-.636 2.273z"/></symbol></svg>